<svg width="24" height="24" version="1.1" xmlns="http://www.w3.org/2000/svg" xmlns:xlink="http://www.w3.org/1999/xlink" fill="#d4843e" viewBox="-0.888889 -0.888889 17.777778 17.777778" stroke-width="0"> <path d="M4 7H3V2h1v5zm-1 7h1v-3H3v3zm5 0h1V8H8v6zm5 0h1v-2h-1v2zm1-12h-1v6h1V2zM9 2H8v2h1V2zM5 8H2c-.55 0-1 .45-1 1s.45 1 1 1h3c.55 0 1-.45 1-1s-.45-1-1-1zm5-3H7c-.55 0-1 .45-1 1s.45 1 1 1h3c.55 0 1-.45 1-1s-.45-1-1-1zm5 4h-3c-.55 0-1 .45-1 1s.45 1 1 1h3c.55 0 1-.45 1-1s-.45-1-1-1z" stroke-width="0"></path></svg>