<svg width="24" height="24" version="1.1" xmlns="http://www.w3.org/2000/svg" xmlns:xlink="http://www.w3.org/1999/xlink" fill="#8fd7f4" viewBox="-1.333333 -1.333333 26.666667 26.666667" stroke-width="0"> <path fill="#8fd7f4" d="M12 4a8 8 0 1 0 0 16 8 8 0 0 0 0-16zM2 12C2 6.477 6.477 2 12 2s10 4.477 10 10-4.477 10-10 10S2 17.523 2 12zm5.793-4.207a1 1 0 0 1 1.414 0L12 10.586l2.793-2.793a1 1 0 1 1 1.414 1.414L13.414 12l2.793 2.793a1 1 0 0 1-1.414 1.414L12 13.414l-2.793 2.793a1 1 0 0 1-1.414-1.414L10.586 12 7.793 9.207a1 1 0 0 1 0-1.414z" stroke-width="0"></path></svg>