<?xml version="1.0" standalone="no"?>
<!DOCTYPE svg PUBLIC "-//W3C//DTD SVG 1.1//EN" "http://www.w3.org/Graphics/SVG/1.1/DTD/svg11.dtd" >
<svg xmlns="http://www.w3.org/2000/svg" xmlns:xlink="http://www.w3.org/1999/xlink" version="1.1" viewBox="-10 0 1556 2048">
   <path fill="currentColor"
d="M0 426h172v512h340v-512h172v1196h-172v-512h-340v512h-172v-1196zM1024 426h428v172h-428v340h172q140 0 240 100t100 242t-100 242t-240 100h-172q-72 0 -122 -50t-50 -122v-84h172v84h172q68 0 118 -50t50 -120t-50 -120t-118 -50h-172q-72 0 -122 -50t-50 -122v-340
q0 -72 50 -122t122 -50z" />
</svg>
