<?xml version="1.0" standalone="no"?>
<!DOCTYPE svg PUBLIC "-//W3C//DTD SVG 1.1//EN" "http://www.w3.org/Graphics/SVG/1.1/DTD/svg11.dtd" >
<svg xmlns="http://www.w3.org/2000/svg" xmlns:xlink="http://www.w3.org/1999/xlink" version="1.1" viewBox="-10 0 1556 2048">
   <path fill="currentColor"
d="M0 426h172v512h340v-512h172v1196h-172v-512h-340v512h-172v-1196zM1024 426h340q72 0 122 50t50 122v84h-172v-84h-340v340h340q72 0 122 50t50 122v340q0 72 -50 122t-122 50h-340q-72 0 -122 -50t-50 -122v-852q0 -72 50 -122t122 -50zM1024 1110v340h340v-340h-340z
" />
</svg>
