<svg width="24" height="24" version="1.1" xmlns="http://www.w3.org/2000/svg" xmlns:xlink="http://www.w3.org/1999/xlink" fill="#8fd7f4" viewBox="-60.049383 -52.543210 632.098765 553.086420" stroke-width="0"> <title id="title4" stroke-width="0"></title> <defs id="defs6" stroke-width="0"> <g id="hg" stroke-width="0"> <path id="path9" d="M 85.685,67.399 C 100.47,42.815 82.562,2.944 49.818,6.995 20.233,10.652 19.757,41.792 45.83,49.189 c 22.563,6.408 4.661,20.72 5.184,30.25 0.526,9.529 19.616,12.986 34.671,-12.04" stroke-width="0"></path> <circle id="circle11" r="12.838" cy="70.616997" cx="31.579" stroke-width="0"></circle> <circle id="circle13" r="8.3999996" cy="43.476002" cx="16.913" stroke-width="0"></circle></g></defs> <path id="path4944" d="M 255.99999,0 0,68.758899 0,378.17443 255.99999,446.93333 512,378.17443 512,68.758899 255.99999,0 Z M 34.06721,352.89164 33.86625,120.32815 l 205.06559,55.07919 0,232.50966 L 34.065696,352.8926 Z M 33.86657,85.948544 119.33538,62.992812 341.33322,122.69164 255.99989,145.61224 33.86657,85.948544 Z m 444.06719,266.943096 -204.86614,55.02439 0,-232.50965 68.2656,-18.33513 0,83.80004 68.26668,-18.33609 0,-83.79908 68.53335,-18.407 -0.2016,232.56348 z M 409.6,104.35554 l 0,-0.0645 L 187.59147,44.662198 255.99999,26.288395 478.13334,85.9508 409.6,104.35554 Z" stroke-width="0"></path></svg>